<?xml version="1.0" standalone="no"?>
<!DOCTYPE svg PUBLIC "-//W3C//DTD SVG 20010904//EN"
 "http://www.w3.org/TR/2001/REC-SVG-20010904/DTD/svg10.dtd">
<svg version="1.0" xmlns="http://www.w3.org/2000/svg"
 width="700.000000pt" height="700.000000pt" viewBox="0 0 700.000000 700.000000"
 preserveAspectRatio="xMidYMid meet">
<metadata>
Created by potrace 1.14, written by Peter Selinger 2001-2017
</metadata>
<g transform="translate(0.000000,700.000000) scale(0.100000,-0.100000)"
fill="#000000" stroke="none">
<path d="M723 6985 c-342 -62 -605 -306 -695 -645 l-23 -85 0 -2765 0 -2765
28 -88 c50 -161 122 -280 234 -388 110 -106 214 -167 370 -216 l88 -28 2775 0
2775 0 88 28 c304 95 509 300 604 604 l28 88 0 2765 c0 2603 -1 2769 -18 2833
-83 325 -311 557 -635 650 l-77 22 -2735 2 c-2213 1 -2749 -1 -2807 -12z
m5582 -178 c249 -75 433 -260 502 -507 17 -62 18 -185 16 -2796 -1 -3048 5
-2781 -73 -2939 -21 -44 -60 -106 -85 -138 -81 -102 -229 -194 -375 -234 -62
-17 -210 -18 -2780 -18 -2594 0 -2718 1 -2793 18 -252 59 -448 249 -517 501
-21 75 -21 81 -23 2803 l-1 2728 22 78 c66 237 235 414 472 493 50 17 107 19
585 24 292 3 1533 5 2760 5 2115 0 2233 -1 2290 -18z"/>
<path d="M1610 4990 c0 -6 65 -262 144 -568 79 -306 251 -977 382 -1489 l239
-933 207 0 c188 0 207 2 212 18 3 9 100 361 216 782 116 421 270 980 342 1243
72 262 135 474 138 470 4 -5 77 -269 164 -588 86 -319 239 -881 339 -1250
l183 -670 208 0 209 0 92 345 c236 880 636 2377 664 2485 17 66 34 130 37 143
l6 22 -195 0 c-108 0 -198 -4 -201 -9 -3 -5 -125 -499 -271 -1098 -146 -598
-281 -1154 -301 -1235 -20 -82 -39 -148 -43 -148 -3 0 -36 114 -72 253 -37
138 -186 699 -330 1244 l-264 993 -217 0 c-198 0 -217 -2 -222 -17 -5 -19
-212 -790 -491 -1828 -190 -709 -176 -658 -181 -653 -3 4 -105 433 -507 2143
l-82 350 -203 3 c-138 2 -202 -1 -202 -8z"/>
</g>
</svg>
